<svg xmlns="http://www.w3.org/2000/svg" viewBox="0 0 512 512">
  <path d="M474.656 37.345C450.574 13.263 418.556 0 384.5 0s-66.074 13.263-90.156 37.344L116.347 215.34c-23.508 23.51-31.268 56.892-23.28 86.92l-23.902 23.903C53.582 341.745 45 362.463 45 384.5s8.582 42.755 24.164 58.337c32.166 32.166 84.505 32.166 116.672 0l257-257c32.166-32.167 32.166-84.506 0-116.674-32.167-32.166-84.506-32.166-116.674 0L148.166 247.16c-8.5 8.5-13.18 19.8-13.18 31.82s4.68 23.32 13.18 31.82 19.8 13.18 31.82 13.18 23.32-4.68 31.82-13.18l162.088-162.087c5.848-5.85 15.365-5.85 21.213 0 5.85 5.848 5.85 15.364 0 21.212L233.02 332.015c-29.243 29.242-76.824 29.24-106.067 0-29.242-29.243-29.242-76.824 0-106.066l177.998-178C326.2 26.7 354.45 15 384.5 15s58.3 11.702 79.55 32.95C485.298 69.2 497 97.45 497 127.5s-11.702 58.3-32.95 79.55l-257 257C185.8 485.297 157.55 497 127.5 497s-58.3-11.702-79.55-32.95C26.702 442.8 15 414.55 15 384.5s11.702-58.3 32.95-79.55l24.982-24.98c2.93-2.93 2.93-7.678 0-10.607-2.93-2.928-7.678-2.928-10.606 0l-24.98 24.98C13.26 318.427 0 350.443 0 384.5s13.262 66.074 37.344 90.156C61.426 498.736 93.444 512 127.5 512c34.056 0 66.074-13.263 90.156-37.344l257-257C498.736 193.574 512 161.556 512 127.5s-13.263-66.074-37.344-90.155zM116.346 342.62c35.092 35.09 92.19 35.09 127.28 0l162.088-162.087c11.695-11.696 11.696-30.73 0-42.427-11.697-11.697-30.73-11.697-42.428 0L201.2 300.194c-5.668 5.666-13.2 8.787-21.214 8.787s-15.547-3.12-21.213-8.785c-11.697-11.696-11.697-30.73 0-42.425l177.997-178c26.317-26.316 69.142-26.316 95.46 0 26.318 26.32 26.318 69.143 0 95.46l-257 257c-26.318 26.318-69.14 26.318-95.46 0C67.02 419.48 60 402.53 60 384.5c0-18.03 7.02-34.98 19.77-47.73l19-18.998c4.283 8.99 10.143 17.415 17.577 24.85z"/>
</svg>
