<svg xmlns="http://www.w3.org/2000/svg" viewBox="0 0 512 512">
  <path d="M474.5 35h-437C16.822 35 0 51.822 0 72.5v287C0 380.178 16.822 397 37.5 397h163.894L191 438.577C187.826 451.273 174.088 462 161 462h-60c-4.143 0-7.5 3.358-7.5 7.5 0 4.142 3.357 7.5 7.5 7.5h310c4.143 0 7.5-3.358 7.5-7.5 0-4.142-3.357-7.5-7.5-7.5h-60c-13.088 0-26.826-10.727-30-23.423L310.606 397H474.5c20.678 0 37.5-16.822 37.5-37.5v-287c0-20.678-16.822-37.5-37.5-37.5zm-437 15h437c9.777 0 18.114 6.27 21.21 15H16.29c3.096-8.73 11.433-15 21.21-15zm280.088 412H194.412c5.315-5.583 9.29-12.378 11.14-19.786L216.857 397h78.288l11.303 45.214c1.852 7.407 5.827 14.202 11.14 19.786zM497 320.5H67.5c-4.143 0-7.5 3.358-7.5 7.5 0 4.142 3.357 7.5 7.5 7.5H497v24c0 12.407-10.094 22.5-22.5 22.5h-437C25.094 382 15 371.907 15 359.5v-24h22.5c4.143 0 7.5-3.358 7.5-7.5 0-4.142-3.357-7.5-7.5-7.5H15V80h482v240.5z"/>
  <circle cx="256" cy="359.5" r="7.5"/>
</svg>
