<svg xmlns="http://www.w3.org/2000/svg" viewBox="0 0 512 512">
  <path d="M492 324.133c-11.046 0-20 8.954-20 20v118.49c0 5.17-4.207 9.377-9.378 9.377H49.378c-5.17 0-9.378-4.206-9.378-9.377v-118.49c0-11.046-8.954-20-20-20s-20 8.954-20 20v118.49C0 489.85 22.15 512 49.378 512h413.244C489.85 512 512 489.85 512 462.623v-118.49c0-11.046-8.954-20-20-20z"/>
  <path d="M421.252 248.078c-3.162-7.33-10.38-12.078-18.364-12.078h-68.133V20c0-11.046-8.954-20-20-20h-117.51c-11.046 0-20 8.954-20 20v216h-68.133c-7.983 0-15.2 4.75-18.364 12.08-3.163 7.33-1.663 15.838 3.816 21.645l146.888 155.7c3.778 4.005 9.04 6.276 14.548 6.276s10.77-2.27 14.548-6.273l146.888-155.702c5.478-5.807 6.978-14.316 3.816-21.646zM256 382.556L155.476 276h41.768c11.046 0 20-8.954 20-20V40h77.51v216c0 11.046 8.954 20 20 20h41.77L256 382.556z"/>
</svg>
