<svg xmlns="http://www.w3.org/2000/svg" width="438.536" height="438.536" viewBox="0 0 438.536 438.536">
  <path d="M158.173 352.6c-3.05.567-4.38 1.998-4 4.28.38 2.283 2.094 3.046 5.14 2.283 3.048-.76 4.38-2.095 3.996-3.997-.38-2.092-2.1-2.95-5.14-2.567zm-16.275 2.285c-3.046 0-4.568 1.04-4.568 3.14 0 2.473 1.62 3.517 4.853 3.137 3.046 0 4.57-1.047 4.57-3.138 0-2.47-1.62-3.522-4.855-3.14zm-22.268-.863c-.76 2.095.477 3.52 3.71 4.284 2.855 1.137 4.664.568 5.424-1.714.572-2.09-.666-3.61-3.71-4.568-2.857-.76-4.664-.102-5.425 1.998z"/>
  <path d="M414.41 24.123C398.326 8.043 378.964 0 356.31 0H82.224c-22.647 0-42.016 8.042-58.1 24.123C8.044 40.207 0 59.576 0 82.225v274.088c0 22.65 8.042 42.017 24.123 58.098 16.084 16.09 35.454 24.13 58.102 24.13h63.953c4.184 0 7.327-.14 9.42-.42 2.092-.29 4.184-1.52 6.28-3.71 2.095-2.18 3.14-5.37 3.14-9.56 0-.56-.05-7.04-.145-19.41-.097-12.372-.144-22.173-.144-29.41l-6.57 1.146c-4.19.76-9.47 1.096-15.85 1-6.38-.096-12.99-.76-19.84-2-6.86-1.237-13.23-4.09-19.13-8.56-5.9-4.477-10.09-10.33-12.56-17.56l-2.86-6.57c-1.91-4.373-4.9-9.23-9-14.554-4.1-5.333-8.23-8.95-12.42-10.853l-2-1.43c-1.34-.95-2.57-2.1-3.72-3.43-1.14-1.335-1.995-2.67-2.566-3.997-.57-1.337-.097-2.43 1.427-3.29 1.527-.856 4.28-1.28 8.28-1.28l5.71.855c3.81.76 8.518 3.04 14.136 6.85 5.61 3.807 10.226 8.755 13.843 14.844 4.38 7.807 9.66 13.75 15.847 17.844 6.187 4.098 12.42 6.144 18.7 6.144s11.706-.48 16.276-1.425c4.564-.956 8.85-2.387 12.85-4.29 1.71-12.75 6.374-22.56 13.99-29.41-10.85-1.144-20.607-2.855-29.27-5.14-8.66-2.287-17.606-5.996-26.836-11.137-9.238-5.14-16.898-11.51-22.99-19.13-6.09-7.617-11.09-17.61-14.99-29.977-3.9-12.374-5.85-26.65-5.85-42.83 0-23.027 7.52-42.635 22.56-58.812-7.044-17.32-6.38-36.736 1.997-58.246 5.52-1.712 13.705-.426 24.553 3.857 10.85 4.29 18.794 7.95 23.84 10.994 5.046 3.045 9.09 5.617 12.135 7.71 17.703-4.95 35.974-7.42 54.816-7.42 18.84 0 37.12 2.473 54.82 7.42l10.85-6.85c7.43-4.57 16.18-8.757 26.27-12.562 10.09-3.803 17.8-4.85 23.13-3.14 8.56 21.51 9.33 40.925 2.28 58.24 15.034 16.18 22.56 35.79 22.56 58.82 0 16.18-1.95 30.504-5.856 42.97-3.897 12.465-8.94 22.46-15.13 29.98-6.183 7.52-13.893 13.842-23.123 18.985-9.23 5.134-18.18 8.85-26.84 11.13-8.66 2.285-18.413 4.003-29.26 5.146 9.89 8.56 14.84 22.07 14.84 40.537v68.24c0 3.24.47 5.853 1.423 7.85.96 2 2.48 3.376 4.57 4.143 2.103.76 3.95 1.233 5.572 1.422 1.62.19 3.95.28 6.994.28h63.95c22.65 0 42.02-8.04 58.095-24.125 16.087-16.084 24.13-35.454 24.13-58.1V82.225c-.003-22.65-8.045-42.02-24.126-58.104z"/>
  <path d="M86.793 319.195c-1.33.948-1.14 2.47.572 4.565 1.906 1.902 3.427 2.19 4.57.855 1.33-.948 1.14-2.47-.575-4.57-1.902-1.71-3.424-1.996-4.567-.85zm-9.42-7.138c-.57 1.335.097 2.478 2 3.426 1.52.955 2.76.767 3.71-.568.57-1.335-.095-2.478-2-3.433-1.9-.572-3.14-.38-3.71.575zm18.273 18.273c-1.715.95-1.715 2.667 0 5.138 1.713 2.478 3.328 3.142 4.853 1.998 1.71-1.334 1.71-3.142 0-5.427-1.53-2.47-3.14-3.05-4.86-1.71zm9.994 12.844c-1.713 1.526-1.335 3.327 1.143 5.428 2.28 2.28 4.185 2.566 5.708.85 1.53-1.52 1.15-3.327-1.14-5.42-2.28-2.28-4.18-2.57-5.71-.858z"/>
</svg>
