<svg xmlns="http://www.w3.org/2000/svg" width="96.828" height="96.827" viewBox="0 0 96.828 96.827">
  <path d="M62.617 0H39.525C29.235 0 22.112 2.256 15.7 7.552c-5.04 4.35-8.05 10.672-8.05 16.912 0 9.614 7.33 19.83 20.913 19.83 1.306 0 2.752-.133 4.028-.252l-.18.457c-.54 1.3-1.06 2.54-1.06 4.46 0 3.75 1.81 6.06 3.56 8.3l.22.28-.39.02c-5.61.38-16.05 1.1-23.67 5.79-9.02 5.36-9.72 13.15-9.72 15.41 0 8.99 8.38 18.06 27.09 18.06 21.76 0 33.15-12.01 33.15-23.868.004-8.77-5.14-13.1-10.6-17.698l-4.604-3.58c-1.42-1.18-3.193-2.646-3.193-5.364 0-2.672 1.773-4.436 3.337-5.992l.162-.165c4.97-3.92 10.61-8.36 10.61-17.97 0-9.66-6.038-14.65-8.94-17.05h7.662c.1 0 .19-.03.27-.08l6.6-4.15c.19-.12.28-.35.22-.56-.06-.218-.252-.36-.48-.36zM34.614 91.535c-13.264 0-22.176-6.195-22.176-15.416 0-6.03 3.645-10.4 10.824-13 5.75-1.94 13.17-2.03 13.244-2.03 1.257 0 1.89 0 2.893.12 9.28 6.6 13.74 10.07 13.74 16.68 0 8.41-7.1 13.64-18.53 13.64zm-.125-50.78c-11.14 0-15.76-14.632-15.76-22.467 0-3.984.9-7.042 2.77-9.35 2.02-2.532 5.49-4.168 8.82-4.168 10.22 0 15.87 13.74 15.87 23.235 0 1.498 0 6.055-3.15 9.22-2.12 2.113-5.56 3.532-8.57 3.532zm60.49 4.468H82.81V33.098c0-.276-.225-.5-.5-.5h-5.23c-.276 0-.5.224-.5.5v12.125H64.473c-.276 0-.5.224-.5.5v5.304c0 .275.224.5.5.5H76.58V63.73c0 .275.224.5.5.5h5.234c.275 0 .5-.225.5-.5V51.525h12.168c.276 0 .5-.223.5-.5v-5.302c0-.277-.223-.5-.5-.5z"/>
</svg>
