<svg xmlns="http://www.w3.org/2000/svg" viewBox="0 0 512 512">
  <path d="M376 30c-27.783 0-53.255 8.804-75.707 26.168-21.525 16.647-35.856 37.85-44.293 53.268-8.437-15.42-22.768-36.62-44.293-53.268C189.255 38.804 163.783 30 136 30 58.468 30 0 93.417 0 177.514c0 90.854 72.943 153.015 183.37 247.118 18.75 15.98 40.006 34.095 62.098 53.414C248.38 480.596 252.12 482 256 482s7.62-1.404 10.532-3.953c22.094-19.322 43.348-37.435 62.11-53.425C439.058 330.53 512 268.368 512 177.514 512 93.417 453.532 30 376 30z"/>
</svg>
