<svg xmlns="http://www.w3.org/2000/svg" viewBox="0 0 512 512">
  <path d="M436 197h-52.5v-69.5C383.5 57.196 326.304 0 256 0S128.5 57.196 128.5 127.5V197H76c-4.143 0-7.5 3.357-7.5 7.5v300c0 4.143 3.357 7.5 7.5 7.5h360c4.143 0 7.5-3.357 7.5-7.5v-300c0-4.143-3.357-7.5-7.5-7.5zm-292.5-69.5C143.5 65.468 193.968 15 256 15s112.5 50.468 112.5 112.5V197h-30v-69.5c0-45.49-37.01-82.5-82.5-82.5s-82.5 37.01-82.5 82.5V197h-30v-69.5zm180 0V197h-135v-69.5c0-37.22 30.28-67.5 67.5-67.5s67.5 30.28 67.5 67.5zm105 369.5h-45V234.5c0-4.143-3.357-7.5-7.5-7.5s-7.5 3.357-7.5 7.5V497h-225V234.5c0-4.143-3.357-7.5-7.5-7.5s-7.5 3.357-7.5 7.5V497h-45V212h345v285z"/>
  <path d="M256 287c-20.678 0-37.5 16.822-37.5 37.5 0 11.832 5.65 22.958 15 29.99v45.01c0 12.406 10.094 22.5 22.5 22.5s22.5-10.094 22.5-22.5v-45.01c9.35-7.032 15-18.158 15-29.99 0-20.678-16.822-37.5-37.5-37.5zm11.244 56.985c-2.317 1.34-3.744 3.814-3.744 6.49V399.5c0 4.136-3.364 7.5-7.5 7.5s-7.5-3.364-7.5-7.5v-49.023c0-2.677-1.427-5.15-3.744-6.49-6.942-4.02-11.256-11.485-11.256-19.486 0-12.403 10.094-22.5 22.5-22.5s22.5 10.097 22.5 22.5c0 8-4.313 15.47-11.256 19.487z"/>
</svg>
