<svg xmlns="http://www.w3.org/2000/svg" viewBox="0 0 512 512">
  <path d="M437.333 192h-32v-42.667C405.333 66.99 338.343 0 256 0S106.667 66.99 106.667 149.333V192h-32C68.77 192 64 196.77 64 202.667v266.667C64 492.864 83.135 512 106.667 512h298.667c23.53 0 42.666-19.135 42.666-42.667V202.667c0-5.896-4.77-10.667-10.667-10.667zM287.938 414.823c.333 3.01-.635 6.03-2.656 8.292-2.02 2.26-4.917 3.552-7.948 3.552h-42.667c-3.03 0-5.927-1.292-7.948-3.552-2.023-2.26-2.99-5.28-2.658-8.292l6.73-60.51c-10.928-7.948-17.46-20.52-17.46-34.313 0-23.53 19.136-42.667 42.668-42.667s42.67 19.135 42.67 42.667c0 13.792-6.53 26.365-17.458 34.313l6.728 60.51zM341.333 192H170.667v-42.667C170.667 102.28 208.947 64 256 64s85.333 38.28 85.333 85.333V192z"/>
</svg>
