<svg xmlns="http://www.w3.org/2000/svg" viewBox="0 0 512 512">
  <path d="M256 0C145.72 0 56 88.044 56 196.266c0 85.656 38.918 163.294 94.912 227.646 46.28 53.19 92.19 83.548 94.123 84.815C248.365 510.91 252.182 512 256 512s7.636-1.09 10.965-3.273c1.932-1.267 47.842-31.626 94.123-84.815C417.085 359.557 456 281.92 456 196.266 456 88.044 366.28 0 256 0zm.004 467.414C218.246 439.084 96 336.51 96 196.266 96 110.1 167.776 40 256 40s160 70.1 160 156.266c0 107.714-74.317 206.963-159.996 271.148z"/>
  <path d="M256 96.266c-55.14 0-100 44.86-100 100s44.86 100 100 100 100-44.86 100-100-44.86-100-100-100zm0 160c-33.084 0-60-26.916-60-60s26.916-60 60-60 60 26.916 60 60-26.916 60-60 60z"/>
</svg>
