<svg xmlns="http://www.w3.org/2000/svg" viewBox="0 0 512 512">
  <path d="M491.318 235.318H20.682C9.26 235.318 0 244.578 0 256s9.26 20.682 20.682 20.682h470.636c11.423 0 20.682-9.26 20.682-20.682 0-11.422-9.26-20.682-20.682-20.682zm0-156.878H20.682C9.26 78.44 0 87.7 0 99.12c0 11.423 9.26 20.683 20.682 20.683h470.636c11.423 0 20.682-9.26 20.682-20.682 0-11.42-9.26-20.68-20.682-20.68zm0 313.757H20.682C9.26 392.197 0 401.457 0 412.88s9.26 20.68 20.682 20.68h470.636c11.423 0 20.682-9.258 20.682-20.68s-9.26-20.683-20.682-20.683z"/>
</svg>
