<svg xmlns="http://www.w3.org/2000/svg" width="438.536" height="438.536" viewBox="0 0 438.536 438.536">
  <path d="M164.453 0H18.276C13.324 0 9.04 1.807 5.426 5.424 1.806 9.04 0 13.322 0 18.27v401.992c0 4.948 1.808 9.233 5.425 12.847 3.62 3.61 7.902 5.42 12.85 5.42h146.182c4.95 0 9.23-1.81 12.847-5.43 3.617-3.62 5.424-7.9 5.424-12.85V18.27c0-4.953-1.807-9.232-5.428-12.848C173.685 1.807 169.402 0 164.453 0zm268.66 5.424C429.496 1.807 425.215 0 420.267 0h-146.18c-4.95 0-9.238 1.807-12.848 5.424-3.63 3.615-5.44 7.898-5.44 12.847v402c0 4.95 1.81 9.24 5.43 12.85 3.61 3.62 7.89 5.43 12.84 5.43h146.18c4.95 0 9.23-1.81 12.85-5.424 3.613-3.615 5.42-7.9 5.42-12.85v-402c0-4.952-1.805-9.23-5.42-12.847z"/>
</svg>
