<svg xmlns="http://www.w3.org/2000/svg" viewBox="0 0 512 512">
  <path d="M462.623 111H408.2V40c0-11.046-8.954-20-20-20H123.8c-11.045 0-20 8.954-20 20v71H49.378C22.15 111 0 133.43 0 161v190c0 27.57 22.15 50 49.377 50H103.8v71c0 11.046 8.954 20 20 20h264.398c11.046 0 20-8.954 20-20v-71h54.423c27.23 0 49.38-22.43 49.38-50V161c0-27.57-22.15-50-49.376-50zM143.8 60h224.4v51H143.8V60zm0 392V301h224.4v151H143.8zm318.823-91H408.2v-60H426c11.046 0 20-8.954 20-20s-8.954-20-20-20H86c-11.046 0-20 8.954-20 20s8.954 20 20 20h17.8v60H49.378c-5.17 0-9.377-4.486-9.377-10V161c0-5.514 4.208-10 9.378-10h413.245c5.17 0 9.377 4.486 9.377 10v190c0 5.514-4.207 10-9.377 10z"/>
</svg>
