<svg xmlns="http://www.w3.org/2000/svg" width="400" height="399.999" viewBox="0 0 400 399.999">
  <path d="M361.796 209.654c-7.887 0-14.28 6.393-14.28 14.275 0 81.34-66.17 147.515-147.518 147.515-81.342 0-147.515-66.176-147.515-147.518 0-76.522 58.575-139.586 133.24-146.797v32.864c0 5.1 2.724 9.812 7.136 12.362 2.21 1.274 4.674 1.914 7.136 1.914 2.466 0 4.927-.64 7.136-1.914L290.038 74.5c4.42-2.547 7.137-7.26 7.137-12.36s-2.717-9.815-7.137-12.363L207.134 1.913c-4.418-2.55-9.855-2.55-14.275 0-4.415 2.548-7.14 7.264-7.14 12.363v34.212c-90.426 7.298-161.79 83.167-161.79 175.44 0 97.085 78.983 176.07 176.065 176.07 97.088 0 176.07-78.985 176.07-176.07 0-7.88-6.388-14.274-14.27-14.274z"/>
</svg>
