<svg xmlns="http://www.w3.org/2000/svg" viewBox="0 0 241.66 241.66">
  <path fill-rule="evenodd" d="M208.632 133.58c10.345.47 19.12-7.678 19.574-18.204.453-10.526-6.82-19.99-17.174-20.444l-68.73-8.63s14.323-23.958 14.323-59.455C156.625 3.184 139.72 0 129.778 0c-7.82-.003-9.927 15.15-9.927 15.15h-.01c-1.77 9.718-4.07 18.204-12.09 33.828-8.97 17.512-21.19 15.87-35.45 31.467-2.51 2.747-5.9 7.28-9.19 12.86-.27.295-.52.708-.76 1.29-.29.69-.64 1.17-.95 1.81-.546 1.004-1.083 2.007-1.61 3.06-8.83 8.827-22.58 7.925-28.436 7.925-11.747 0-17.9 6.825-17.9 17.898l-.005 81.828c0 12.423 5.082 16.613 17.902 16.613h17.9c9.01 0 16.068 5.16 26.85 8.94 14.767 5.11 36.82 8.95 74.81 8.95 6.645 0 27.252.022 27.252.022 6.31 0 11.376-2.883 15.033-6.363 1.39-1.324 2.84-3.246 3.464-6.996.1-.58.21-3.018.19-3.347.477-10.726-6.01-14.61-9.682-15.833.1-.033.035-.125.235-.117l11.665.52c10.353.474 20.57-6.984 20.57-19.67 0-10.514-8.524-17.93-18.843-18.436l6.187.287c10.35.455 19.1-7.694 19.58-18.22.45-10.525-7.57-19.43-17.915-19.905z" clip-rule="evenodd"/>
</svg>
