<svg xmlns="http://www.w3.org/2000/svg" viewBox="0 0 457.68 457.68">
  <path d="M439.48 167.086V55.836c0-17.81-14.49-32.3-32.3-32.3H32.3c-17.81 0-32.3 14.49-32.3 32.3v226.63c0 17.81 14.49 32.3 32.3 32.3h106.243l-12.162 13.09h-18.22c-4.14 0-7.5 3.36-7.5 7.5s3.36 7.5 7.5 7.5h104.36v72.335c0 10.45 8.505 18.955 18.955 18.955H312.1c10.448 0 18.95-8.5 18.95-18.95V399.96h100.94c14.166 0 25.69-11.53 25.69-25.7V191.67c0-11.564-7.674-21.365-18.2-24.58zm3.2 24.58v2.05H270.19v-2.05c0-5.9 4.8-10.7 10.7-10.7h151.1c5.895.002 10.69 4.802 10.69 10.7zM312.1 255.032h-41.91v-46.314h172.49v148.49H331.05v-83.225c0-10.448-8.502-18.95-18.95-18.95zm3.95 28.81h-88.528v-9.858c0-2.178 1.772-3.95 3.95-3.95H312.1c2.178 0 3.95 1.77 3.95 3.95v9.858zM424.48 63.337v102.63H280.89c-14.172 0-25.7 11.53-25.7 25.7v63.364h-23.72c-10.44 0-18.935 8.49-18.948 18.93H15V63.338h409.48zM227.52 298.84h88.528v91.495H227.52V298.84zM32.3 38.537h374.88c6.85 0 12.764 4.012 15.564 9.8H16.734c2.8-5.788 8.715-9.8 15.565-9.8zm-16.026 250.42H212.52v10.81H32.3c-7.244 0-13.453-4.48-16.026-10.81zm130.582 38.9l12.162-13.09h53.503v13.09h-65.66zm165.242 91.286H231.47c-2.177 0-3.95-1.772-3.95-3.95v-9.858h88.528v9.857c0 2.178-1.772 3.95-3.95 3.95zm119.89-34.185H331.05v-12.75h111.63v2.05c0 5.9-4.794 10.7-10.69 10.7z"/>
</svg>
