<svg xmlns="http://www.w3.org/2000/svg" viewBox="0 0 512 512">
  <path d="M504.5 68.5H7.5C3.357 68.5 0 71.857 0 76v360c0 4.143 3.357 7.5 7.5 7.5h497c4.143 0 7.5-3.357 7.5-7.5V76c0-4.143-3.357-7.5-7.5-7.5zm-7.5 360H15v-345h482v345z"/>
  <path d="M479.69 400.587L329.015 256.054l150.68-144.644c2.987-2.868 3.085-7.616.216-10.604-2.87-2.99-7.61-3.087-10.6-.217L313.76 249.91c-.37.26-.72.56-1.044.895-.184.19-.354.39-.513.595l-18.25 17.52c-20.924 20.208-54.97 20.21-75.913-.015L199.804 251.4c-.16-.204-.33-.403-.514-.595-.324-.34-.676-.635-1.043-.9L42.697 100.59c-2.99-2.87-7.738-2.77-10.607.217-2.87 2.987-2.77 7.735.216 10.604l150.68 144.65L32.308 400.59c-2.99 2.867-3.09 7.614-.222 10.604 1.473 1.536 3.44 2.31 5.413 2.31 1.862 0 3.732-.694 5.19-2.09L193.81 266.45l13.817 13.263c13.34 12.882 30.855 19.32 48.374 19.32 17.51 0 35.023-6.437 48.347-19.305l13.835-13.28L469.31 411.413c1.452 1.395 3.322 2.088 5.19 2.088 1.97 0 3.94-.77 5.412-2.31 2.868-2.982 2.77-7.73-.22-10.6z"/>
</svg>
