<svg xmlns="http://www.w3.org/2000/svg" viewBox="0 0 512 512">
  <path d="M493.815 70.63c-11-1.004-20.73 7.1-21.733 18.1l-2.65 29.07C424.472 47.194 346.43 0 256 0 158.72 0 72.988 55.522 30.43 138.854c-5.024 9.837-1.122 21.884 8.715 26.908 9.84 5.024 21.884 1.123 26.908-8.715C102.07 86.523 174.397 40 256 40c74.377 0 141.5 38.73 179.953 99.408l-28.517-20.367c-8.99-6.416-21.48-4.334-27.9 4.654-6.418 8.99-4.336 21.48 4.652 27.9l86.475 61.76c12.674 9.035 30.155.764 31.54-14.46l9.712-106.53c1.004-11-7.1-20.73-18.1-21.733zm-20.96 275.608c-9.838-5.023-21.884-1.122-26.908 8.715C409.93 425.477 337.603 472 256 472c-74.377 0-141.5-38.73-179.953-99.408l28.517 20.367c8.99 6.416 21.48 4.334 27.9-4.654 6.418-8.99 4.336-21.48-4.652-27.9l-86.475-61.76c-12.52-8.944-30.14-.92-31.54 14.46L.084 419.636c-1.003 11 7.102 20.73 18.1 21.733 11.015 1 20.732-7.114 21.734-18.104l2.65-29.07C87.526 464.806 165.57 512 256 512c97.28 0 183.012-55.522 225.57-138.854 5.024-9.837 1.122-21.884-8.715-26.908z"/>
</svg>
