<svg xmlns="http://www.w3.org/2000/svg" viewBox="0 0 512 512">
  <path d="M492 0H344.212c-11.046 0-20 8.954-20 20s8.954 20 20 20h99.503l-160.32 160.322c-7.812 7.81-7.812 20.474 0 28.284 7.81 7.81 20.472 7.81 28.283 0L472 68.284v99.503c0 11.046 8.954 20 20 20s20-8.954 20-20V20c0-10.885-8.846-20-20-20zM228.606 283.394c-7.81-7.81-20.474-7.81-28.284 0L40 443.716v-99.503c0-11.046-8.954-20-20-20s-20 8.954-20 20V492c0 10.866 8.853 20 20 20h147.788c11.046 0 20-8.954 20-20s-8.954-20-20-20H68.284l160.322-160.322c7.81-7.81 7.81-20.474 0-28.284z"/>
</svg>
