<svg xmlns="http://www.w3.org/2000/svg" viewBox="0 0 512 512">
  <path d="M506.143 477.852l-144.4-144.44c65.315-79.317 62.224-198.04-13.46-273.743-79.536-79.56-208.95-79.56-288.487 0-79.724 79.743-79.73 208.813 0 288.566 74.746 74.767 193.567 79.292 273.654 13.45L477.862 506.14c7.81 7.813 20.47 7.813 28.282 0 7.808-7.81 7.808-20.476 0-28.288zM320.003 319.95c-63.943 63.96-167.984 63.958-231.926 0-64.093-64.112-64.098-167.875 0-231.99 63.94-63.958 167.98-63.963 231.925 0 64.093 64.11 64.098 167.873 0 231.99z"/>
</svg>
