<svg xmlns="http://www.w3.org/2000/svg" viewBox="0 0 443.979 443.979">
  <path d="M372.72 0H71.26C56.78 0 44.997 11.78 44.997 26.26v391.46c0 14.48 11.78 26.26 26.26 26.26H372.72c14.48 0 26.26-11.78 26.26-26.26V26.26C398.98 11.78 387.2 0 372.72 0zm11.26 417.718c0 6.21-5.05 11.26-11.26 11.26H71.26c-6.21 0-11.262-5.05-11.262-11.26V26.26c0-6.208 5.052-11.26 11.26-11.26H372.72c6.21 0 11.26 5.052 11.26 11.26v391.46z"/>
  <path d="M368.982 47.908H74.997c-2.76 0-5 2.24-5 5V391.07c0 2.762 2.24 5 5 5h293.985c2.76 0 5-2.238 5-5V52.91c0-2.762-2.24-5-5-5zm-5 338.163H79.997V57.91h283.985v328.16zm-141.99 20.41c-1.98 0-3.91.8-5.31 2.2-1.39 1.39-2.19 3.33-2.19 5.3 0 1.97.8 3.91 2.19 5.3 1.4 1.4 3.33 2.2 5.31 2.2 1.97 0 3.91-.8 5.3-2.2 1.4-1.39 2.2-3.33 2.2-5.3 0-1.97-.8-3.91-2.2-5.3-1.4-1.4-3.33-2.2-5.3-2.2zm0-369.23c1.31 0 2.6-.53 3.53-1.46.93-.93 1.47-2.22 1.47-3.54 0-1.32-.54-2.6-1.47-3.54-.93-.93-2.22-1.46-3.53-1.46-1.32 0-2.61.53-3.54 1.46-.93.93-1.46 2.22-1.46 3.54 0 1.32.53 2.61 1.46 3.54.93.93 2.22 1.46 3.54 1.46z"/>
</svg>
