<svg xmlns="http://www.w3.org/2000/svg" viewBox="0 0 512 512">
  <path d="M492 324.133c-11.046 0-20 8.954-20 20v118.49c0 5.17-4.207 9.377-9.378 9.377H49.378c-5.17 0-9.378-4.206-9.378-9.377v-118.49c0-11.046-8.954-20-20-20s-20 8.954-20 20v118.49C0 489.85 22.15 512 49.378 512h413.244C489.85 512 512 489.85 512 462.623v-118.49c0-11.046-8.954-20-20-20z"/>
  <path d="M417.436 161.976L270.548 6.276C266.77 2.27 261.508 0 256 0s-10.77 2.27-14.548 6.275L94.564 161.977c-5.478 5.807-6.978 14.316-3.816 21.646s10.38 12.078 18.364 12.078h68.133v216c0 11.048 8.954 20 20 20h117.51c11.046 0 20-8.952 20-20v-216h68.133c7.983 0 15.2-4.747 18.364-12.077 3.163-7.33 1.663-15.84-3.816-21.646zm-102.68-6.275c-11.047 0-20 8.956-20 20v216h-77.51v-216c0-11.044-8.954-20-20-20h-41.77L256 49.147 356.525 155.7h-41.77z"/>
</svg>
